<svg width="48" height="48" viewBox="0 0 48 48" xmlns="http://www.w3.org/2000/svg"><path d="M36 0c6.627 0 12 5.373 12 12v24c0 6.627-5.373 12-12 12H12C5.373 48 0 42.627 0 36V12C0 5.373 5.373 0 12 0h24zm-8.537 12.748a6.302 6.302 0 0 0-3.197 7 18.103 18.103 0 0 1-13.108-6.596 6.288 6.288 0 0 0 1.969 8.426 6.35 6.35 0 0 1-2.887-.79v.08c0 3.005 2.135 5.593 5.103 6.188a6.397 6.397 0 0 1-2.872.108 6.362 6.362 0 0 0 5.942 4.384A12.824 12.824 0 0 1 9 34.165a18.106 18.106 0 0 0 9.749 2.83C30.447 37 36.845 27.381 36.845 19.04c0-.273 0-.545-.018-.815 1.245-.894 2.32-2 3.173-3.268a12.77 12.77 0 0 1-3.653.993 6.343 6.343 0 0 0 2.796-3.491 12.805 12.805 0 0 1-4.039 1.532 6.401 6.401 0 0 0-7.641-1.242z" fill="#000" fill-rule="evenodd"/></svg>
