<?xml version="1.0" encoding="UTF-8" standalone="no"?><svg xmlns="http://www.w3.org/2000/svg" xmlns:xlink="http://www.w3.org/1999/xlink" contentScriptType="application/ecmascript" contentStyleType="text/css" height="80px" preserveAspectRatio="none" style="width:450px;height:80px;" version="1.1" viewBox="0 0 450 80" width="450px" zoomAndPan="magnify"><defs><filter height="300%" id="f16mik6iyv5sr0" width="300%" x="-1" y="-1"><feGaussianBlur result="blurOut" stdDeviation="2.0"/><feColorMatrix in="blurOut" result="blurOut2" type="matrix" values="0 0 0 0 0 0 0 0 0 0 0 0 0 0 0 0 0 0 .4 0"/><feOffset dx="4.0" dy="4.0" in="blurOut2" result="blurOut3"/><feBlend in="SourceGraphic" in2="blurOut3" mode="normal"/></filter></defs><g><!--class Client--><rect fill="#FEFECE" filter="url(#f16mik6iyv5sr0)" height="48" id="Client" style="stroke: #A80036; stroke-width: 1.5;" width="64" x="6" y="15"/><ellipse cx="21" cy="31" fill="#ADD1B2" rx="11" ry="11" style="stroke: #A80036; stroke-width: 1.0;"/><path d="M23.7656,26.875 Q23.9219,26.6563 24.1094,26.5469 Q24.2969,26.4375 24.5156,26.4375 Q24.8906,26.4375 25.125,26.6953 Q25.3594,26.9531 25.3594,27.5625 L25.3594,29.0156 Q25.3594,29.625 25.125,29.8906 Q24.8906,30.1563 24.5156,30.1563 Q24.1719,30.1563 23.9688,29.9531 Q23.7656,29.7656 23.6563,29.25 Q23.6094,28.8906 23.4219,28.7031 Q23.0938,28.3281 22.4844,28.1094 Q21.875,27.8906 21.25,27.8906 Q20.4844,27.8906 19.8516,28.2188 Q19.2188,28.5469 18.7266,29.2969 Q18.2344,30.0469 18.2344,31.0781 L18.2344,32.1719 Q18.2344,33.4063 19.125,34.2266 Q20.0156,35.0469 21.6094,35.0469 Q22.5469,35.0469 23.2031,34.7969 Q23.5938,34.6406 24.0156,34.2031 Q24.2813,33.9375 24.4297,33.8594 Q24.5781,33.7813 24.7813,33.7813 Q25.1094,33.7813 25.3672,34.0391 Q25.625,34.2969 25.625,34.6406 Q25.625,34.9844 25.2813,35.3906 Q24.7813,35.9688 23.9844,36.2969 Q22.9063,36.75 21.6094,36.75 Q20.0938,36.75 18.8906,36.125 Q17.9063,35.625 17.2188,34.5547 Q16.5313,33.4844 16.5313,32.2031 L16.5313,31.0469 Q16.5313,29.7188 17.1484,28.5703 Q17.7656,27.4219 18.8594,26.8047 Q19.9531,26.1875 21.1875,26.1875 Q21.9219,26.1875 22.5703,26.3516 Q23.2188,26.5156 23.7656,26.875 Z "/><text fill="#000000" font-family="sans-serif" font-size="12" lengthAdjust="spacingAndGlyphs" textLength="32" x="35" y="35.9102">Client</text><line style="stroke: #A80036; stroke-width: 1.5;" x1="7" x2="69" y1="47" y2="47"/><line style="stroke: #A80036; stroke-width: 1.5;" x1="7" x2="69" y1="55" y2="55"/><!--class JSON Adapter--><rect fill="#FEFECE" filter="url(#f16mik6iyv5sr0)" height="61.8359" id="JSON Adapter" style="stroke: #A80036; stroke-width: 1.5;" width="109" x="138.5" y="8"/><ellipse cx="153.5" cy="24" fill="#ADD1B2" rx="11" ry="11" style="stroke: #A80036; stroke-width: 1.0;"/><path d="M156.2656,19.875 Q156.4219,19.6563 156.6094,19.5469 Q156.7969,19.4375 157.0156,19.4375 Q157.3906,19.4375 157.625,19.6953 Q157.8594,19.9531 157.8594,20.5625 L157.8594,22.0156 Q157.8594,22.625 157.625,22.8906 Q157.3906,23.1563 157.0156,23.1563 Q156.6719,23.1563 156.4688,22.9531 Q156.2656,22.7656 156.1563,22.25 Q156.1094,21.8906 155.9219,21.7031 Q155.5938,21.3281 154.9844,21.1094 Q154.375,20.8906 153.75,20.8906 Q152.9844,20.8906 152.3516,21.2188 Q151.7188,21.5469 151.2266,22.2969 Q150.7344,23.0469 150.7344,24.0781 L150.7344,25.1719 Q150.7344,26.4063 151.625,27.2266 Q152.5156,28.0469 154.1094,28.0469 Q155.0469,28.0469 155.7031,27.7969 Q156.0938,27.6406 156.5156,27.2031 Q156.7813,26.9375 156.9297,26.8594 Q157.0781,26.7813 157.2813,26.7813 Q157.6094,26.7813 157.8672,27.0391 Q158.125,27.2969 158.125,27.6406 Q158.125,27.9844 157.7813,28.3906 Q157.2813,28.9688 156.4844,29.2969 Q155.4063,29.75 154.1094,29.75 Q152.5938,29.75 151.3906,29.125 Q150.4063,28.625 149.7188,27.5547 Q149.0313,26.4844 149.0313,25.2031 L149.0313,24.0469 Q149.0313,22.7188 149.6484,21.5703 Q150.2656,20.4219 151.3594,19.8047 Q152.4531,19.1875 153.6875,19.1875 Q154.4219,19.1875 155.0703,19.3516 Q155.7188,19.5156 156.2656,19.875 Z "/><text fill="#000000" font-family="sans-serif" font-size="12" lengthAdjust="spacingAndGlyphs" textLength="77" x="167.5" y="28.9102">JSON Adapter</text><line style="stroke: #A80036; stroke-width: 1.5;" x1="139.5" x2="246.5" y1="40" y2="40"/><text fill="#000000" font-family="sans-serif" font-size="11" lengthAdjust="spacingAndGlyphs" textLength="86" x="144.5" y="55.4189">GET /transactions</text><line style="stroke: #A80036; stroke-width: 1.5;" x1="139.5" x2="246.5" y1="61.8359" y2="61.8359"/><!--class Database Service--><rect fill="#FEFECE" filter="url(#f16mik6iyv5sr0)" height="61.8359" id="Database Service" style="stroke: #A80036; stroke-width: 1.5;" width="129" x="310.5" y="8"/><ellipse cx="325.5" cy="24" fill="#ADD1B2" rx="11" ry="11" style="stroke: #A80036; stroke-width: 1.0;"/><path d="M328.2656,19.875 Q328.4219,19.6563 328.6094,19.5469 Q328.7969,19.4375 329.0156,19.4375 Q329.3906,19.4375 329.625,19.6953 Q329.8594,19.9531 329.8594,20.5625 L329.8594,22.0156 Q329.8594,22.625 329.625,22.8906 Q329.3906,23.1563 329.0156,23.1563 Q328.6719,23.1563 328.4688,22.9531 Q328.2656,22.7656 328.1563,22.25 Q328.1094,21.8906 327.9219,21.7031 Q327.5938,21.3281 326.9844,21.1094 Q326.375,20.8906 325.75,20.8906 Q324.9844,20.8906 324.3516,21.2188 Q323.7188,21.5469 323.2266,22.2969 Q322.7344,23.0469 322.7344,24.0781 L322.7344,25.1719 Q322.7344,26.4063 323.625,27.2266 Q324.5156,28.0469 326.1094,28.0469 Q327.0469,28.0469 327.7031,27.7969 Q328.0938,27.6406 328.5156,27.2031 Q328.7813,26.9375 328.9297,26.8594 Q329.0781,26.7813 329.2813,26.7813 Q329.6094,26.7813 329.8672,27.0391 Q330.125,27.2969 330.125,27.6406 Q330.125,27.9844 329.7813,28.3906 Q329.2813,28.9688 328.4844,29.2969 Q327.4063,29.75 326.1094,29.75 Q324.5938,29.75 323.3906,29.125 Q322.4063,28.625 321.7188,27.5547 Q321.0313,26.4844 321.0313,25.2031 L321.0313,24.0469 Q321.0313,22.7188 321.6484,21.5703 Q322.2656,20.4219 323.3594,19.8047 Q324.4531,19.1875 325.6875,19.1875 Q326.4219,19.1875 327.0703,19.3516 Q327.7188,19.5156 328.2656,19.875 Z "/><text fill="#000000" font-family="sans-serif" font-size="12" lengthAdjust="spacingAndGlyphs" textLength="97" x="339.5" y="28.9102">Database Service</text><line style="stroke: #A80036; stroke-width: 1.5;" x1="311.5" x2="438.5" y1="40" y2="40"/><line style="stroke: #A80036; stroke-width: 1.5;" x1="311.5" x2="438.5" y1="48" y2="48"/><text fill="#000000" font-family="sans-serif" font-size="11" lengthAdjust="spacingAndGlyphs" textLength="75" x="316.5" y="63.4189">Execute(query)</text><!--link Client to JSON Adapter--><path d="M70.1161,39 C88.3404,39 111.734,39 133.211,39 " fill="none" id="Client-&gt;JSON Adapter" style="stroke: #A80036; stroke-width: 1.0; stroke-dasharray: 7.0,7.0;"/><polygon fill="#A80036" points="138.336,39,129.336,35,133.336,39,129.336,43,138.336,39" style="stroke: #A80036; stroke-width: 1.0;"/><text fill="#000000" font-family="sans-serif" font-size="13" lengthAdjust="spacingAndGlyphs" textLength="32" x="88.25" y="32.4951">HTTP</text><!--link JSON Adapter to Database Service--><path d="M247.606,39 C265.695,39 286.08,39 305.154,39 " fill="none" id="JSON Adapter-&gt;Database Service" style="stroke: #A80036; stroke-width: 1.0; stroke-dasharray: 7.0,7.0;"/><polygon fill="#A80036" points="310.495,39,301.495,35,305.495,39,301.495,43,310.495,39" style="stroke: #A80036; stroke-width: 1.0;"/><text fill="#000000" font-family="sans-serif" font-size="13" lengthAdjust="spacingAndGlyphs" textLength="26" x="266" y="32.4951">SQL</text><!--
@startuml

"Client" .> "JSON Adapter": HTTP
"JSON Adapter" : GET /transactions
"JSON Adapter" .> "Database Service": SQL
"Database Service" : Execute(query)

@enduml

PlantUML version 1.2019.09(Tue Aug 27 02:19:51 AEST 2019)
(GPL source distribution)
Java Runtime: Java(TM) SE Runtime Environment
JVM: Java HotSpot(TM) 64-Bit Server VM
Java Version: 1.8.0_241-b07
Operating System: Windows 10
OS Version: 10.0
Default Encoding: Cp1252
Language: en
Country: AU
--></g></svg>