<?xml version="1.0" encoding="utf-8"?>
<!-- Generator: Adobe Illustrator 23.0.3, SVG Export Plug-In . SVG Version: 6.00 Build 0)  -->
<svg version="1.1"
	 id="svg2" xmlns:cc="http://creativecommons.org/ns#" xmlns:dc="http://purl.org/dc/elements/1.1/" xmlns:rdf="http://www.w3.org/1999/02/22-rdf-syntax-ns#" xmlns:svg="http://www.w3.org/2000/svg"
	 xmlns="http://www.w3.org/2000/svg" xmlns:xlink="http://www.w3.org/1999/xlink" width="424px" height="100px" viewBox="0 0 424 99.6"
	 xml:space="preserve">
<style type="text/css">
	.st0{fill:none;stroke:#394D54;stroke-width:10.5;stroke-linecap:round;stroke-linejoin:round;}
	.st1{fill:#394D54;}
	.st2{clip-path:url(#SVGID_2_);}
	.st3{fill:#00ACD3;}
	.st4{fill:#20C2EF;}
	.st5{stroke:#394D54;stroke-width:1.56;}
	.st6{clip-path:url(#SVGID_4_);fill:#17B5EB;}
	.st7{clip-path:url(#SVGID_6_);fill-opacity:0.17;}
	.st8{clip-path:url(#SVGID_8_);fill:#D4EDF1;}
	.st9{clip-path:url(#SVGID_10_);fill-opacity:8.500000e-02;}
	.st10{fill:none;stroke:#394D54;stroke-width:3.4;stroke-linecap:round;}
	.st11{fill:#D4EDF1;}
</style>
<path id="path12" class="st0" d="M321.8,77.9l0-17.6l-0.1-31.4 M339.5,42.4l-17.7,17.9L339.6,78 M221,60.5c0.1-3.8-1-7.6-3.2-10.7
	c-3.2-4.5-8.4-7.6-14.1-7.6c-0.4,0-0.8,0-1.1,0c-2.2,0.1-4.4,0.5-6.3,1.3c-12.7,5.3-14.9,22.8-4.2,30.8c9.2,6.9,22.7,4.1,27.4-6.4
	C220.4,65.6,221,62.8,221,60.5l0-31.8 M306.4,44.3c-2.6-1.7-5.7-2.3-8.7-2.3c-0.3,0-0.7,0-1,0c-8.7,0.4-16.9,6.6-16.9,18.5
	c0,14.2,15.2,21.8,26.5,15.1 M357.4,74.1c8.9-7.7,26.9-23,26.9-23s-0.7-1.2-1.1-1.8c-3.6-4.9-9.1-7.3-15-7.3
	C353.9,42,343.1,60.6,357.4,74.1c1,0.9,2.4,1.7,3.9,2.3c5.3,2.2,12.5,2,16.4-0.9 M250.4,42.1c-0.4,0-0.8,0.1-1.2,0.1
	c-10.9,0.2-18.8,11.5-16.4,22c2.3,10.2,13.5,16.3,23.2,13c11.3-3,15.8-17.1,9.7-26.7C262.3,45.2,256.5,42,250.4,42.1L250.4,42.1z
	 M416,42.4c-4.4,0-8.7,1.6-11.9,4.5c-5,4.1-6.1,9.4-6.1,16l0.1,15"/>
<path id="path14" class="st1" d="M101.5,31.5h15.7v16.1h8c3.7,0,7.5-0.7,10.9-1.8c1.7-0.6,3.6-1.4,5.3-2.4
	c-2.2-2.9-3.4-6.6-3.7-10.2c-0.5-4.9,0.5-11.3,3.9-15.1l1.7-1.9l2,1.6c5,4,9.1,9.6,9.9,15.9c6-1.8,13-1.3,18.3,1.7l2.2,1.2l-1.1,2.2
	c-4.5,8.7-13.8,11.4-22.9,10.9c-13.6,33.9-43.3,50-79.2,50c-18.6,0-35.6-6.9-45.3-23.4c-0.6-1-1.1-2.1-1.6-3.1
	c-3.3-7.3-4.4-15.2-3.6-23.1l0.2-2.4h13.5V31.5h15.7V15.7h31.5V0h18.9L101.5,31.5"/>
<g>
	<defs>
		<path id="SVGID_1_" d="M52.3,1.4V33H37.1v15.8H24.5c-0.1,0.5-0.1,0.9-0.1,1.4c-0.8,8.6,0.7,16.6,4.2,23.4l1.2,2.1
			c0.7,1.2,1.5,2.4,2.4,3.6c0.9,1.1,1.2,1.8,1.7,2.5C42.9,92,56.5,97,72.2,97c34.8,0,64.4-15.4,77.5-50.1c9.3,1,18.2-1.4,22.2-9.4
			c-6.5-3.7-14.8-2.5-19.6-0.1l12.7-36L115.6,33H99.7V1.4H52.3z"/>
	</defs>
	<clipPath id="SVGID_2_">
		<use xlink:href="#SVGID_1_"  style="overflow:visible;"/>
	</clipPath>
	<g id="g16" class="st2">
		<g id="g18">
			<g id="g20" transform="translate(0,-22.866)">
				<path id="path22" class="st3" d="M85.2,9.8h13.6v13.6H85.2L85.2,9.8z"/>
				<path id="path24" class="st4" d="M85.2,25.5h13.6v13.6H85.2L85.2,25.5z"/>
				<path id="path26" class="st5" d="M86.9,22.3V10.9 M88.9,22.3V10.9 M91,22.3V10.9 M93.1,22.3V10.9 M95.1,22.3V10.9 M97.2,22.3
					V10.9"/>
				<g id="use28" transform="translate(0,22.866)">
					<path class="st5" d="M86.9,38V26.6 M88.9,38V26.6 M91,38V26.6 M93.1,38V26.6 M95.1,38V26.6 M97.2,38V26.6"/>
				</g>
			</g>
			<g id="use30" transform="matrix(1,0,0,-1,22.866,4.572651)">
				<g transform="translate(0,-22.866)">
					<path class="st3" d="M100.9,39.1h13.6V25.5h-13.6L100.9,39.1z"/>
					<path class="st4" d="M100.9,23.4h13.6V9.8h-13.6L100.9,23.4z"/>
					<path class="st5" d="M102.6,26.6V38 M104.6,26.6V38 M106.7,26.6V38 M108.8,26.6V38 M110.8,26.6V38 M112.9,26.6V38"/>
					<g transform="translate(0,22.866)">
						<path class="st5" d="M102.6,10.9v11.4 M104.6,10.9v11.4 M106.7,10.9v11.4 M108.8,10.9v11.4 M110.8,10.9v11.4 M112.9,10.9v11.4
							"/>
					</g>
				</g>
			</g>
		</g>
		<g id="use32" transform="translate(-91.464,45.732)">
			<g>
				<g transform="translate(0,-22.866)">
					<path class="st3" d="M22.3,41.2h13.6v13.6H22.3L22.3,41.2z"/>
					<path class="st4" d="M22.3,56.9h13.6v13.6H22.3L22.3,56.9z"/>
					<path class="st5" d="M24,53.7V42.4 M26,53.7V42.4 M28.1,53.7V42.4 M30.1,53.7V42.4 M32.2,53.7V42.4 M34.2,53.7V42.4"/>
					<g transform="translate(0,22.866)">
						<path class="st5" d="M24,69.4V58.1 M26,69.4V58.1 M28.1,69.4V58.1 M30.1,69.4V58.1 M32.2,69.4V58.1 M34.2,69.4V58.1"/>
					</g>
				</g>
				<g transform="matrix(1,0,0,-1,22.866,4.572651)">
					<g transform="translate(0,-22.866)">
						<path class="st3" d="M38,70.6h13.6V56.9H38L38,70.6z"/>
						<path class="st4" d="M38,54.8h13.6V41.2H38L38,54.8z"/>
						<path class="st5" d="M39.7,58.1v11.4 M41.7,58.1v11.4 M43.8,58.1v11.4 M45.9,58.1v11.4 M47.9,58.1v11.4 M50,58.1v11.4"/>
						<g transform="translate(0,22.866)">
							<path class="st5" d="M39.7,42.4v11.4 M41.7,42.4v11.4 M43.8,42.4v11.4 M45.9,42.4v11.4 M47.9,42.4v11.4 M50,42.4v11.4"/>
						</g>
					</g>
				</g>
			</g>
		</g>
		<g id="use34" transform="translate(-45.732,45.732)">
			<g>
				<g transform="translate(0,-22.866)">
					<path class="st3" d="M53.7,41.2h13.6v13.6H53.7L53.7,41.2z"/>
					<path class="st4" d="M53.7,56.9h13.6v13.6H53.7L53.7,56.9z"/>
					<path class="st5" d="M55.4,53.7V42.4 M57.5,53.7V42.4 M59.5,53.7V42.4 M61.6,53.7V42.4 M63.7,53.7V42.4 M65.7,53.7V42.4"/>
					<g transform="translate(0,22.866)">
						<path class="st5" d="M55.4,69.4V58.1 M57.5,69.4V58.1 M59.5,69.4V58.1 M61.6,69.4V58.1 M63.7,69.4V58.1 M65.7,69.4V58.1"/>
					</g>
				</g>
				<g transform="matrix(1,0,0,-1,22.866,4.572651)">
					<g transform="translate(0,-22.866)">
						<path class="st3" d="M69.5,70.6h13.6V56.9H69.5V70.6z"/>
						<path class="st4" d="M69.5,54.8h13.6V41.2H69.5V54.8z"/>
						<path class="st5" d="M71.1,58.1v11.4 M73.2,58.1v11.4 M75.3,58.1v11.4 M77.3,58.1v11.4 M79.4,58.1v11.4 M81.4,58.1v11.4"/>
						<g transform="translate(0,22.866)">
							<path class="st5" d="M71.1,42.4v11.4 M73.2,42.4v11.4 M75.3,42.4v11.4 M77.3,42.4v11.4 M79.4,42.4v11.4 M81.4,42.4v11.4"/>
						</g>
					</g>
				</g>
			</g>
		</g>
		<g id="use36" transform="translate(0,45.732)">
			<g>
				<g transform="translate(0,-22.866)">
					<path class="st3" d="M85.2,41.2h13.6v13.6H85.2L85.2,41.2z"/>
					<path class="st4" d="M85.2,56.9h13.6v13.6H85.2L85.2,56.9z"/>
					<path class="st5" d="M86.9,53.7V42.4 M88.9,53.7V42.4 M91,53.7V42.4 M93.1,53.7V42.4 M95.1,53.7V42.4 M97.2,53.7V42.4"/>
					<g transform="translate(0,22.866)">
						<path class="st5" d="M86.9,69.4V58.1 M88.9,69.4V58.1 M91,69.4V58.1 M93.1,69.4V58.1 M95.1,69.4V58.1 M97.2,69.4V58.1"/>
					</g>
				</g>
				<g transform="matrix(1,0,0,-1,22.866,4.572651)">
					<g transform="translate(0,-22.866)">
						<path class="st3" d="M100.9,70.6h13.6V56.9h-13.6L100.9,70.6z"/>
						<path class="st4" d="M100.9,54.8h13.6V41.2h-13.6L100.9,54.8z"/>
						<path class="st5" d="M102.6,58.1v11.4 M104.6,58.1v11.4 M106.7,58.1v11.4 M108.8,58.1v11.4 M110.8,58.1v11.4 M112.9,58.1v11.4
							"/>
						<g transform="translate(0,22.866)">
							<path class="st5" d="M102.6,42.4v11.4 M104.6,42.4v11.4 M106.7,42.4v11.4 M108.8,42.4v11.4 M110.8,42.4v11.4 M112.9,42.4
								v11.4"/>
						</g>
					</g>
				</g>
			</g>
		</g>
	</g>
</g>
<g>
	<defs>
		<path id="SVGID_3_" d="M52.3,1.4V33H37.1v15.8H24.5c-0.1,0.5-0.1,0.9-0.1,1.4c-0.8,8.6,0.7,16.6,4.2,23.4l1.2,2.1
			c0.7,1.2,1.5,2.4,2.4,3.6c0.9,1.1,1.2,1.8,1.7,2.5C42.9,92,56.5,97,72.2,97c34.8,0,64.4-15.4,77.5-50.1c9.3,1,18.2-1.4,22.2-9.4
			c-6.5-3.7-14.8-2.5-19.6-0.1l12.7-36L115.6,33H99.7V1.4H52.3z"/>
	</defs>
	<clipPath id="SVGID_4_">
		<use xlink:href="#SVGID_3_"  style="overflow:visible;"/>
	</clipPath>
	<path id="path38" class="st6" d="M152.4,37.4c1.1-8.2-5.1-14.6-8.9-17.7c-4.4,5.1-5.1,18.4,1.8,23.9c-3.8,3.4-11.9,6.5-20.2,6.5
		H23.4c-0.8,8.6,0,50.3,0,50.3h149.3L172,37.5C165.5,33.8,157.2,35,152.4,37.4"/>
</g>
<g>
	<defs>
		<path id="SVGID_5_" d="M52.3,1.4V33H37.1v15.8H24.5c-0.1,0.5-0.1,0.9-0.1,1.4c-0.8,8.6,0.7,16.6,4.2,23.4l1.2,2.1
			c0.7,1.2,1.5,2.4,2.4,3.6c0.9,1.1,1.2,1.8,1.7,2.5C42.9,92,56.5,97,72.2,97c34.8,0,64.4-15.4,77.5-50.1c9.3,1,18.2-1.4,22.2-9.4
			c-6.5-3.7-14.8-2.5-19.6-0.1l12.7-36L115.6,33H99.7V1.4H52.3z"/>
	</defs>
	<clipPath id="SVGID_6_">
		<use xlink:href="#SVGID_5_"  style="overflow:visible;"/>
	</clipPath>
	<path id="path40" class="st7" d="M23.4,61.2v39.2h149.3V61.2"/>
</g>
<g>
	<defs>
		<path id="SVGID_7_" d="M52.3,1.4V33H37.1v15.8H24.5c-0.1,0.5-0.1,0.9-0.1,1.4c-0.8,8.6,0.7,16.6,4.2,23.4l1.2,2.1
			c0.7,1.2,1.5,2.4,2.4,3.6c0.9,1.1,1.2,1.8,1.7,2.5C42.9,92,56.5,97,72.2,97c34.8,0,64.4-15.4,77.5-50.1c9.3,1,18.2-1.4,22.2-9.4
			c-6.5-3.7-14.8-2.5-19.6-0.1l12.7-36L115.6,33H99.7V1.4H52.3z"/>
	</defs>
	<clipPath id="SVGID_8_">
		<use xlink:href="#SVGID_7_"  style="overflow:visible;"/>
	</clipPath>
	<path id="path42" class="st8" d="M76.5,96.9c-9.3-4.4-14.4-10.4-17.3-17L31,81.2l14.4,19.3L76.5,96.9"/>
</g>
<g>
	<defs>
		<path id="SVGID_9_" d="M52.3,1.4V33H37.1v15.8H24.5c-0.1,0.5-0.1,0.9-0.1,1.4c-0.8,8.6,0.7,16.6,4.2,23.4l1.2,2.1
			c0.7,1.2,1.5,2.4,2.4,3.6c0.9,1.1,1.2,1.8,1.7,2.5C42.9,92,56.5,97,72.2,97c34.8,0,64.4-15.4,77.5-50.1c9.3,1,18.2-1.4,22.2-9.4
			c-6.5-3.7-14.8-2.5-19.6-0.1l12.7-36L115.6,33H99.7V1.4H52.3z"/>
	</defs>
	<clipPath id="SVGID_10_">
		<use xlink:href="#SVGID_9_"  style="overflow:visible;"/>
	</clipPath>
	<path id="path44" class="st9" d="M153.1,37.1L153.1,37.1c-14.4,18.5-34.9,34.7-57,43.2c-19.7,7.6-36.9,7.6-48.8,1.5
		c-1.3-0.7-2.5-1.5-3.8-2.3c-8.7-6.1-13.6-16.1-13.2-29.4h-6.9v50.3h149.3v-66h-17.2L153.1,37.1z"/>
</g>
<path id="path46" class="st10" d="M31.4,80.5c9.7,0.5,20.1,0.6,29.2-2.2"/>
<path id="path48" class="st11" d="M70.3,73.6c0,2.1-1.7,3.8-3.8,3.8c-2.1,0-3.8-1.7-3.8-3.8c0-2.1,1.7-3.8,3.8-3.8
	C68.6,69.8,70.3,71.5,70.3,73.6z"/>
<path id="path50" class="st1" d="M67.5,71.1c-0.3,0.2-0.6,0.5-0.6,1c0,0.6,0.5,1.1,1.1,1.1c0.4,0,0.8-0.2,1-0.6
	c0.1,0.3,0.2,0.7,0.2,1c0,1.5-1.2,2.7-2.7,2.7c-1.5,0-2.7-1.2-2.7-2.7c0-1.5,1.2-2.7,2.7-2.7C66.9,70.9,67.2,70.9,67.5,71.1z"/>
<path id="path52" class="st1" d="M0,62h174.9c-3.8-1-12.1-2.3-10.7-7.3c-6.9,8-23.6,5.6-27.8,1.7c-4.7,6.8-32,4.2-33.9-1.1
	c-5.9,6.9-24.1,6.9-30,0c-1.9,5.3-29.2,7.9-33.9,1.1c-4.2,4-20.9,6.3-27.8-1.7C12.1,59.8,3.8,61.1,0,62"/>
</svg>
