<?xml version="1.0" encoding="UTF-8" standalone="no"?><svg xmlns="http://www.w3.org/2000/svg" xmlns:xlink="http://www.w3.org/1999/xlink" contentScriptType="application/ecmascript" contentStyleType="text/css" height="150px" preserveAspectRatio="none" style="width:341px;height:150px;" version="1.1" viewBox="0 0 341 150" width="341px" zoomAndPan="magnify"><defs><filter height="300%" id="fgzrcf0zt4o0m" width="300%" x="-1" y="-1"><feGaussianBlur result="blurOut" stdDeviation="2.0"/><feColorMatrix in="blurOut" result="blurOut2" type="matrix" values="0 0 0 0 0 0 0 0 0 0 0 0 0 0 0 0 0 0 .4 0"/><feOffset dx="4.0" dy="4.0" in="blurOut2" result="blurOut3"/><feBlend in="SourceGraphic" in2="blurOut3" mode="normal"/></filter></defs><g><!--class Customer Facade--><rect fill="#FEFECE" filter="url(#fgzrcf0zt4o0m)" height="75.6719" id="Customer Facade" style="stroke: #A80036; stroke-width: 1.5;" width="181" x="6" y="35.5"/><ellipse cx="43.5" cy="51.5" fill="#ADD1B2" rx="11" ry="11" style="stroke: #A80036; stroke-width: 1.0;"/><path d="M46.2656,47.375 Q46.4219,47.1563 46.6094,47.0469 Q46.7969,46.9375 47.0156,46.9375 Q47.3906,46.9375 47.625,47.1953 Q47.8594,47.4531 47.8594,48.0625 L47.8594,49.5156 Q47.8594,50.125 47.625,50.3906 Q47.3906,50.6563 47.0156,50.6563 Q46.6719,50.6563 46.4688,50.4531 Q46.2656,50.2656 46.1563,49.75 Q46.1094,49.3906 45.9219,49.2031 Q45.5938,48.8281 44.9844,48.6094 Q44.375,48.3906 43.75,48.3906 Q42.9844,48.3906 42.3516,48.7188 Q41.7188,49.0469 41.2266,49.7969 Q40.7344,50.5469 40.7344,51.5781 L40.7344,52.6719 Q40.7344,53.9063 41.625,54.7266 Q42.5156,55.5469 44.1094,55.5469 Q45.0469,55.5469 45.7031,55.2969 Q46.0938,55.1406 46.5156,54.7031 Q46.7813,54.4375 46.9297,54.3594 Q47.0781,54.2813 47.2813,54.2813 Q47.6094,54.2813 47.8672,54.5391 Q48.125,54.7969 48.125,55.1406 Q48.125,55.4844 47.7813,55.8906 Q47.2813,56.4688 46.4844,56.7969 Q45.4063,57.25 44.1094,57.25 Q42.5938,57.25 41.3906,56.625 Q40.4063,56.125 39.7188,55.0547 Q39.0313,53.9844 39.0313,52.7031 L39.0313,51.5469 Q39.0313,50.2188 39.6484,49.0703 Q40.2656,47.9219 41.3594,47.3047 Q42.4531,46.6875 43.6875,46.6875 Q44.4219,46.6875 45.0703,46.8516 Q45.7188,47.0156 46.2656,47.375 Z "/><text fill="#000000" font-family="sans-serif" font-size="12" lengthAdjust="spacingAndGlyphs" textLength="99" x="62.5" y="56.4102">Customer Facade</text><line style="stroke: #A80036; stroke-width: 1.5;" x1="7" x2="186" y1="67.5" y2="67.5"/><line style="stroke: #A80036; stroke-width: 1.5;" x1="7" x2="186" y1="75.5" y2="75.5"/><text fill="#000000" font-family="sans-serif" font-size="11" lengthAdjust="spacingAndGlyphs" textLength="66" x="12" y="90.9189">getFullName()</text><text fill="#000000" font-family="sans-serif" font-size="11" lengthAdjust="spacingAndGlyphs" textLength="169" x="12" y="104.7549">setFullName(first, middle, surname)</text><!--class Customer--><rect fill="#FEFECE" filter="url(#fgzrcf0zt4o0m)" height="131.0156" id="Customer" style="stroke: #A80036; stroke-width: 1.5;" width="108" x="222.5" y="8"/><ellipse cx="246.95" cy="24" fill="#ADD1B2" rx="11" ry="11" style="stroke: #A80036; stroke-width: 1.0;"/><path d="M249.7156,19.875 Q249.8719,19.6563 250.0594,19.5469 Q250.2469,19.4375 250.4656,19.4375 Q250.8406,19.4375 251.075,19.6953 Q251.3094,19.9531 251.3094,20.5625 L251.3094,22.0156 Q251.3094,22.625 251.075,22.8906 Q250.8406,23.1563 250.4656,23.1563 Q250.1219,23.1563 249.9188,22.9531 Q249.7156,22.7656 249.6063,22.25 Q249.5594,21.8906 249.3719,21.7031 Q249.0438,21.3281 248.4344,21.1094 Q247.825,20.8906 247.2,20.8906 Q246.4344,20.8906 245.8016,21.2188 Q245.1688,21.5469 244.6766,22.2969 Q244.1844,23.0469 244.1844,24.0781 L244.1844,25.1719 Q244.1844,26.4063 245.075,27.2266 Q245.9656,28.0469 247.5594,28.0469 Q248.4969,28.0469 249.1531,27.7969 Q249.5438,27.6406 249.9656,27.2031 Q250.2313,26.9375 250.3797,26.8594 Q250.5281,26.7813 250.7313,26.7813 Q251.0594,26.7813 251.3172,27.0391 Q251.575,27.2969 251.575,27.6406 Q251.575,27.9844 251.2313,28.3906 Q250.7313,28.9688 249.9344,29.2969 Q248.8563,29.75 247.5594,29.75 Q246.0438,29.75 244.8406,29.125 Q243.8563,28.625 243.1688,27.5547 Q242.4813,26.4844 242.4813,25.2031 L242.4813,24.0469 Q242.4813,22.7188 243.0984,21.5703 Q243.7156,20.4219 244.8094,19.8047 Q245.9031,19.1875 247.1375,19.1875 Q247.8719,19.1875 248.5203,19.3516 Q249.1688,19.5156 249.7156,19.875 Z "/><text fill="#000000" font-family="sans-serif" font-size="12" lengthAdjust="spacingAndGlyphs" textLength="55" x="263.05" y="28.9102">Customer</text><line style="stroke: #A80036; stroke-width: 1.5;" x1="223.5" x2="329.5" y1="40" y2="40"/><line style="stroke: #A80036; stroke-width: 1.5;" x1="223.5" x2="329.5" y1="48" y2="48"/><text fill="#000000" font-family="sans-serif" font-size="11" lengthAdjust="spacingAndGlyphs" textLength="71" x="228.5" y="63.4189">getFirstName()</text><text fill="#000000" font-family="sans-serif" font-size="11" lengthAdjust="spacingAndGlyphs" textLength="80" x="228.5" y="77.2549">getMiddleName()</text><text fill="#000000" font-family="sans-serif" font-size="11" lengthAdjust="spacingAndGlyphs" textLength="66" x="228.5" y="91.0908">getSurname()</text><text fill="#000000" font-family="sans-serif" font-size="11" lengthAdjust="spacingAndGlyphs" textLength="87" x="228.5" y="104.9268">setFirstName(arg)</text><text fill="#000000" font-family="sans-serif" font-size="11" lengthAdjust="spacingAndGlyphs" textLength="96" x="228.5" y="118.7627">setMiddleName(arg)</text><text fill="#000000" font-family="sans-serif" font-size="11" lengthAdjust="spacingAndGlyphs" textLength="82" x="228.5" y="132.5986">setSurname(arg)</text><!--link Customer Facade to Customer--><path d="M187.203,73.5 C197.203,73.5 207.204,73.5 217.204,73.5 " fill="none" id="Customer Facade-&gt;Customer" style="stroke: #A80036; stroke-width: 1.0; stroke-dasharray: 7.0,7.0;"/><polygon fill="#A80036" points="222.434,73.5,213.434,69.5,217.434,73.5,213.434,77.5,222.434,73.5" style="stroke: #A80036; stroke-width: 1.0;"/><!--
@startuml

"Customer Facade" .> Customer

"Customer Facade" : getFullName()
"Customer Facade" : setFullName(first, middle, surname)
Customer : getFirstName()
Customer : getMiddleName()
Customer : getSurname()
Customer : setFirstName(arg)
Customer : setMiddleName(arg)
Customer : setSurname(arg)

@enduml

PlantUML version 1.2019.09(Tue Aug 27 02:19:51 AEST 2019)
(GPL source distribution)
Java Runtime: Java(TM) SE Runtime Environment
JVM: Java HotSpot(TM) 64-Bit Server VM
Java Version: 1.8.0_241-b07
Operating System: Windows 10
OS Version: 10.0
Default Encoding: Cp1252
Language: en
Country: AU
--></g></svg>