<?xml version="1.0" encoding="utf-8"?>
<!-- Generator: Adobe Illustrator 23.0.3, SVG Export Plug-In . SVG Version: 6.00 Build 0)  -->
<svg version="1.1" id="Layer_1" xmlns="http://www.w3.org/2000/svg" xmlns:xlink="http://www.w3.org/1999/xlink" width="164px" height="162px"
	 viewBox="0 0 240 238" xml:space="preserve">
<style type="text/css">
	.st0{fill:#00A1DF;}
</style>
<g>
	<g>
		<path class="st0" d="M4.7,120.2c0,63.2,51.7,114.6,115.1,114.6c63.5,0,115.2-51.4,115.2-114.6C235,57,183.3,5.6,119.8,5.6
			C56.4,5.6,4.7,57,4.7,120.2z M119.9,15.9c58,0,105,47,105,105c0,58-47,105-105,105c-58,0-105.1-47-105.1-105
			C14.8,62.9,61.8,15.9,119.9,15.9z"/>
		<path class="st0" d="M83.4,199.3l7.2-27.6c-17.3-8.2-29.4-26.6-29.4-47.9c0-11.3,3.4-21.7,9.1-30.2l37.9,56.4H131l37.9-56.4
			c5.7,8.5,9.1,19,9.1,30.2c0,19.9-10.5,37.2-26,46.1l7.3,27.9c27.8-14.3,46.8-43.3,46.8-76.7c0-31.5-16.9-59.1-42.2-74.1l-44,67.9
			L76.3,46.8c-25.5,15-42.7,42.7-42.7,74.4C33.6,155.8,54,185.6,83.4,199.3z"/>
	</g>
</g>
</svg>
